<?xml version="1.0" encoding="UTF-8"?> <svg xmlns="http://www.w3.org/2000/svg" width="1920" height="1060" viewBox="0 0 1920 1060" fill="none"><g clip-path="url(#clip0_5439_176527)"><path d="M1922.04 -1.89722H86.54V1061.89H1922.04V-1.89722Z" fill="#E22D1A"></path><path d="M1095.42 1051.12C1085.21 1031.86 1075.33 1015.97 1050.19 978.437C1026.24 942.67 1015.3 925.293 1002.81 903.193C948.801 807.64 917.683 693.252 909.518 560.253C907.588 528.825 907.238 480.661 908.726 451.51C915.627 316.377 944.462 202.971 996.54 106.136C1010.58 80.0394 1022.07 61.4811 1050.95 18.3146L1064.48 -1.89722H1080.43C1093.83 -1.89722 1096.35 -1.79195 1096.12 -1.24205C1095.31 0.715169 1087.53 27.9185 1083.86 41.5997C1054.93 149.532 1037.83 271.075 1032.25 408.486C1030.06 462.491 1030.06 534.913 1032.26 589.566C1038.04 733.606 1056.81 861.387 1088.68 973.814C1096 999.644 1107.39 1035.3 1115.03 1056.33L1117.05 1061.89L1109.08 1061.87L1101.11 1061.86L1095.42 1051.12Z" fill="#4CE55C"></path><path d="M1116.96 1061.53C1116.58 1060.93 1110.27 1042.84 1106.19 1030.68C1063.31 902.832 1039.02 757.885 1032.25 589.566C1030.06 534.913 1030.06 462.491 1032.25 408.486C1037.83 271.076 1054.92 149.579 1083.86 41.5997C1087.62 27.5587 1094.39 3.84929 1095.83 -0.360642L1096.36 -1.89722H1152.48H1208.61L1208.6 0.821338C1208.6 2.31654 1208.27 10.4545 1207.86 18.9056C1201.15 156.626 1197.97 337.13 1198.61 542.759C1199.02 670.962 1200.05 745.356 1202.77 842.273C1204.75 912.622 1208.2 994.45 1211.41 1046.99C1211.82 1053.75 1212.16 1059.87 1212.16 1060.58L1212.16 1061.89H1164.67C1138.55 1061.89 1117.08 1061.73 1116.96 1061.53Z" fill="#F1F13A"></path><path d="M-2.04004 529.994V-1.89722H512.893H1027.83L1027.49 4.19114C1026.7 18.7914 1022.65 28.5427 1014.4 35.6951C1010.48 39.0899 1006.2 41.2613 997.095 44.4639C987.803 47.7328 983.733 49.6256 979.057 52.8532C968.904 59.8603 959.704 72.286 951.158 90.5336C949.575 93.9141 945.589 102.956 942.301 110.627C932.691 133.046 929.186 140.303 923.063 150.465C915.798 162.523 908.283 171.98 898.59 181.262C888.676 190.756 882.323 195.657 860.202 210.874C829.975 231.668 814.812 245.079 797.947 265.94C746.483 329.591 720.054 434.777 729.104 539.923C735.114 609.749 756.269 673.55 788.673 719.584C798.623 733.719 808.218 744.746 820.557 756.228C831.036 765.979 840.453 773.262 861.28 787.722C881.493 801.757 888.705 807.259 896.801 814.822C910.741 827.846 921.38 842.543 931.008 862.077C932.945 866.007 938.013 877.289 942.271 887.149C955.457 917.687 960.207 926.285 969.722 936.84C976.455 944.309 983.267 948.512 995.789 952.923C1005.28 956.265 1008.22 957.61 1012.28 960.448C1023.56 968.335 1029.05 984.183 1027.19 1003.5C1026.87 1006.88 1025.82 1014.65 1024.87 1020.77C1022.48 1036.16 1021.89 1043.53 1022.25 1053.49L1022.55 1061.89H510.257H-2.04004V529.994Z" fill="#002381"></path><path d="M692.688 387.083C692.211 387.407 691.897 387.623 691.38 387.973C677.48 397.393 671.478 401.976 664.14 408.757C638.988 431.998 624.161 464.087 621.304 501.453C620.963 505.911 620.959 518.933 621.299 523.418C624.137 560.888 638.739 592.543 664.068 616.15C671.311 622.901 677.284 627.439 692.447 637.718C692.544 637.784 692.594 637.822 692.688 637.886V610.361C681.629 587.219 674.826 561.725 672.291 533.903C670.994 519.667 671.092 502.968 672.558 488.238C675.175 461.939 681.996 437.078 692.688 414.625V387.083Z" fill="#000085"></path><path d="M748.873 329.918C748.211 330.381 747.775 330.689 747.058 331.189C727.779 344.646 719.454 351.193 709.277 360.878C674.392 394.077 653.828 439.913 649.865 493.289C649.393 499.656 649.387 518.257 649.858 524.664C653.795 578.187 674.047 623.405 709.177 657.126C719.224 666.769 727.508 673.252 748.538 687.935C748.672 688.028 748.741 688.082 748.873 688.174V648.857C733.533 615.799 724.099 579.383 720.583 539.641C718.784 519.306 718.92 495.452 720.953 474.411C724.582 436.846 734.043 401.333 748.873 369.26V329.918Z" fill="#0000AA"></path><path d="M836.568 281.178C835.49 281.774 834.781 282.171 833.615 282.815C802.233 300.146 788.682 308.578 772.116 321.052C715.333 363.81 681.86 422.844 675.409 491.589C674.64 499.789 674.63 523.746 675.398 531.998C681.806 600.932 714.771 659.169 771.954 702.6C788.307 715.02 801.791 723.369 836.024 742.28C836.241 742.4 836.354 742.47 836.568 742.588V691.951C811.599 649.374 796.242 602.472 790.519 551.287C787.591 525.096 787.813 494.375 791.122 467.275C797.029 418.893 812.429 373.155 836.568 331.848V281.178Z" fill="#0000D4"></path><path d="M1049 1058.69C1047.25 1053.44 1042.17 1034.71 1038.33 1019.33C1026.94 973.636 1019.89 953.49 1007.04 929.976C998.933 915.144 990.249 902.77 978.038 888.654C969.982 879.341 965.389 874.499 948.394 857.403C919.144 827.98 907.622 814.984 893.65 795.66C844.792 728.089 816.632 637.481 811.156 530.23C810.5 517.391 810.503 480.108 811.161 467.349C816.672 360.392 845.275 268.547 893.792 202.023C907.946 182.614 919.527 169.506 946.34 142.541C963.911 124.87 969.307 119.23 976.649 110.864C1003.77 79.963 1019.9 48.598 1032.03 3.1853L1033.39 -1.89722H1048.84H1064.3L1063.69 -0.833434C1063.35 -0.248354 1057.99 7.80627 1051.78 17.0657C1014.01 73.3757 996.803 102.706 979.022 141.122C940.843 223.609 917.214 322.383 910.03 429.526C907.203 471.689 907.016 519.504 909.518 560.253C917.683 693.252 948.801 807.64 1002.81 903.193C1015.3 925.293 1026.24 942.67 1050.19 978.437C1074.92 1015.36 1083.8 1029.58 1094.61 1049.56C1098.04 1055.91 1100.86 1061.28 1100.86 1061.5C1100.86 1061.71 1089.43 1061.89 1075.46 1061.89H1050.07L1049 1058.69Z" fill="#049CF8"></path><path d="M1212.16 1060.58C1212.16 1059.87 1211.82 1053.75 1211.41 1046.99C1205.51 950.328 1201.63 830.025 1199.35 672.777C1198.51 615.068 1198.51 383.017 1199.35 325.039C1201.29 191.323 1203.36 117.472 1208.18 11.4592L1208.79 -1.89722H1322.18H1435.57L1437.47 17.6055C1451.07 156.868 1458.38 284.923 1460.75 425.034C1461.4 463.55 1461.08 572.091 1460.23 604.695C1456.93 729.836 1451.57 824.737 1441.36 938.723C1437.97 976.522 1429.72 1057.48 1428.91 1060.82L1428.66 1061.89H1320.41H1212.16L1212.16 1060.58Z" fill="#FB9601"></path><path d="M1022.41 1057.98C1021.55 1047.71 1022.19 1038.05 1024.88 1020.75C1025.83 1014.64 1026.87 1006.88 1027.19 1003.5C1029.05 984.183 1023.56 968.335 1012.28 960.448C1008.22 957.61 1005.28 956.265 995.788 952.923C983.266 948.512 976.455 944.309 969.721 936.84C960.206 926.285 955.456 917.687 942.27 887.149C938.013 877.289 932.944 866.007 931.007 862.077C921.379 842.543 910.74 827.846 896.8 814.822C888.704 807.259 881.493 801.757 861.28 787.722C852.002 781.281 840.874 773.263 836.551 769.904C798.503 740.344 771.101 700.554 751.919 647.01C728.986 582.996 721.8 507.778 731.661 434.963C740.765 367.736 764.429 307.395 797.946 265.94C814.812 245.079 829.974 231.668 860.201 210.874C882.322 195.657 888.676 190.756 898.59 181.262C908.283 171.98 915.798 162.523 923.062 150.465C929.186 140.303 932.69 133.046 942.3 110.627C945.589 102.956 949.574 93.9141 951.158 90.5336C959.703 72.286 968.903 59.8603 979.056 52.8532C983.733 49.6256 987.803 47.7328 997.094 44.4639C1006.2 41.2613 1010.48 39.0899 1014.4 35.6951C1022.65 28.5427 1026.7 18.7914 1027.49 4.19114L1027.83 -1.89722H1030.54C1032.04 -1.89722 1033.26 -1.77836 1033.26 -1.63312C1033.26 -0.916649 1029.83 11.1173 1027.41 18.8897C1015.75 56.3644 1000.97 83.145 976.649 110.864C969.307 119.23 963.911 124.87 946.339 142.541C919.526 169.506 907.946 182.614 893.791 202.023C845.275 268.547 816.672 360.392 811.16 467.349C810.503 480.108 810.5 517.391 811.156 530.23C813.906 584.101 822.151 632.654 836.246 677.978C854.539 736.799 880.738 784.218 917.748 825.489C926.106 834.809 930.991 839.897 948.393 857.403C965.389 874.499 969.982 879.341 978.038 888.654C990.249 902.77 998.933 915.144 1007.04 929.976C1019.8 953.33 1026.98 973.782 1038.1 1018.39C1043.06 1038.31 1048.32 1057.48 1049.8 1061.06C1050.12 1061.83 1049.28 1061.89 1036.44 1061.89H1022.74L1022.41 1057.98Z" fill="#1931E3"></path><path d="M1428.96 1060.58C1429.89 1055.82 1438.06 975.551 1441.36 938.723C1451.57 824.737 1456.93 729.836 1460.23 604.695C1461.08 572.082 1461.4 463.549 1460.75 425.034C1458.39 285.678 1450.74 151.565 1437.55 18.4405C1436.58 8.69343 1435.79 0.12998 1435.79 -0.58942V-1.89722H1479.25H1522.7V529.994V1061.89H1475.7H1428.7L1428.96 1060.58Z" fill="#E22D1A"></path></g><defs><clipPath id="clip0_5439_176527"><rect width="1920" height="1060" fill="white"></rect></clipPath></defs></svg> 