<?xml version="1.0" encoding="UTF-8"?> <svg xmlns="http://www.w3.org/2000/svg" width="1920" height="1060" viewBox="0 0 1920 1060" fill="none"><g clip-path="url(#clip0_5439_176511)"><path d="M1922.04 -1.89716H86.54V1061.89H1922.04V-1.89716Z" fill="#E22D1A"></path><path d="M1750.44 1063.67C1752.49 1054.44 1770.37 899.096 1777.59 827.821C1799.94 607.218 1811.68 423.551 1818.88 181.359C1820.76 118.241 1821.46 -91.8086 1820.03 -166.349C1814.88 -436.052 1798.12 -695.607 1769.25 -953.251C1767.13 -972.115 1765.4 -988.688 1765.4 -990.08V-992.612H1860.52H1955.64V36.7859V1066.18H1852.76H1749.88L1750.44 1063.67Z" fill="#E22D1A"></path><path d="M-11.1885 529.994V-1.89716H503.744H1018.68L1018.35 4.1912C1017.55 18.7914 1013.5 28.5427 1005.25 35.6951C1001.33 39.0899 997.049 41.2613 987.946 44.4639C978.655 47.7328 974.585 49.6256 969.908 52.8532C959.755 59.8604 950.555 72.2861 942.009 90.5337C940.426 93.9142 936.44 102.956 933.152 110.627C923.542 133.046 920.038 140.303 913.914 150.465C906.649 162.523 899.135 171.98 889.441 181.262C879.528 190.756 873.174 195.657 851.053 210.875C820.826 231.668 805.664 245.08 788.798 265.94C737.335 329.591 710.905 434.777 719.955 539.923C725.966 609.749 747.12 673.55 779.524 719.584C789.475 733.719 799.069 744.746 811.409 756.229C821.887 765.979 831.304 773.262 852.132 787.723C872.345 801.757 879.556 807.259 887.652 814.822C901.592 827.846 912.231 842.543 921.859 862.077C923.796 866.007 928.864 877.289 933.122 887.149C946.308 917.687 951.058 926.285 960.573 936.84C967.307 944.309 974.118 948.512 986.64 952.923C996.127 956.265 999.074 957.61 1003.13 960.448C1014.41 968.335 1019.9 984.183 1018.05 1003.5C1017.72 1006.88 1016.68 1014.65 1015.72 1020.77C1013.33 1036.16 1012.74 1043.53 1013.1 1053.49L1013.4 1061.89H501.108H-11.1885V529.994Z" fill="#002381"></path><path d="M1040.7 1045.34C1018.37 1008.08 996.729 977.331 941.712 904.682C889.291 835.461 865.338 801.829 837.996 759.058C719.778 574.129 651.667 352.749 633.794 95.3472C629.57 34.5236 628.803 -58.69 632.062 -115.107C647.167 -376.638 710.281 -596.12 824.274 -783.53C854.994 -834.035 880.163 -869.952 943.377 -953.494L972.976 -992.612H1007.9C1037.22 -992.612 1042.74 -992.408 1042.24 -991.343C1040.47 -987.556 1023.44 -934.908 1015.41 -908.43C952.07 -699.542 914.643 -464.313 902.433 -198.374C897.634 -93.8559 897.64 46.3056 902.448 152.078C915.12 430.848 956.189 678.149 1025.95 895.734C1041.97 945.726 1066.9 1014.74 1083.63 1055.43L1088.06 1066.18L1070.61 1066.16L1053.16 1066.13L1040.7 1045.34Z" fill="#4CE55C"></path><path d="M1034.53 1063.67C1072.34 1037.5 1128.65 528.792 1127.27 313.122C1126.57 201.434 1126.57 -247.666 1127.27 -359.875C1128.87 -618.663 1130.59 -761.59 1134.58 -966.762L1135.09 -992.612H1229.08H1323.08L1324.66 -954.867C1335.93 -685.344 1341.99 -437.513 1343.96 -166.349C1347.2 237.103 1299.21 912.56 1160.31 1064.12L1160.1 1066.18C1100.28 1066.18 1094.35 1066.18 1034.53 1066.18L1034.53 1063.67Z" fill="#FB9601"></path><path d="M1018.37 1065.5C1017.84 1064.33 1048.38 1076.6 1042.73 1053.07C983.386 805.64 910.485 477.835 901.121 152.078C898.08 46.3057 898.077 -93.8559 901.111 -198.374C908.833 -464.312 932.491 -699.451 972.552 -908.43C977.761 -935.604 987.126 -981.49 989.126 -989.638L989.856 -992.612H1067.54H1145.22L1145.22 -987.35C1145.22 -984.456 1144.75 -968.707 1144.18 -952.351C1134.9 -685.813 1130.49 -336.473 1131.39 61.4914C1136.28 288.097 1149.39 787.239 1040.86 1063.67L1053.72 1066.18L1018.37 1065.5Z" fill="#F1F13A"></path><path d="M159.185 -239.797C158.14 -239.17 157.453 -238.752 156.322 -238.075C125.896 -219.843 112.758 -210.973 96.6961 -197.85C41.6424 -152.87 9.1885 -90.7677 2.93446 -18.4497C2.18846 -9.82298 2.17936 15.3789 2.92323 24.0603C9.13661 96.5769 41.0977 157.841 96.5389 203.529C112.394 216.594 125.467 225.377 158.657 245.271C158.868 245.397 158.978 245.471 159.185 245.595V192.326C134.977 147.537 120.087 98.197 114.539 44.3518C111.7 16.7995 111.915 -15.5188 115.123 -44.0271C120.85 -94.9236 135.781 -143.039 159.185 -186.493V-239.797Z" fill="#000085"></path><path d="M282.165 -350.431C280.715 -349.535 279.762 -348.939 278.193 -347.971C235.994 -321.928 217.772 -309.258 195.495 -290.512C119.138 -226.261 74.1257 -137.552 65.4517 -34.2508C64.417 -21.9282 64.4044 14.0708 65.4361 26.4716C74.0538 130.057 118.382 217.569 195.277 282.831C217.267 301.494 235.399 314.04 281.433 342.457C281.725 342.638 281.877 342.742 282.165 342.92V266.828C248.589 202.85 227.937 132.371 220.242 55.4569C216.305 16.1001 216.603 -30.0641 221.052 -70.7865C228.995 -143.489 249.705 -212.219 282.165 -274.291V-350.431Z" fill="#0000AA"></path><path d="M474.118 -444.761C471.759 -443.608 470.207 -442.84 467.654 -441.593C398.964 -408.051 369.304 -391.733 333.042 -367.59C208.752 -284.838 135.484 -170.588 121.365 -37.5415C119.681 -21.6708 119.66 24.6937 121.34 40.6652C135.367 174.076 207.523 286.786 332.687 370.839C368.482 394.877 397.996 411.035 472.927 447.634C473.403 447.867 473.65 448.002 474.118 448.23V350.229C419.465 267.829 385.85 177.057 373.324 77.9961C366.915 27.3072 367.4 -32.1493 374.643 -84.597C387.572 -178.233 421.282 -266.754 474.118 -346.698V-444.761Z" fill="#0000D4"></path><path d="M939.109 1060.01C935.26 1049.85 924.143 1013.59 915.753 983.832C890.817 895.391 875.372 856.401 847.25 810.893C829.511 782.187 810.504 758.239 783.776 730.92C766.142 712.895 756.088 703.524 718.888 670.437C654.866 613.494 629.645 588.343 599.061 550.945C492.119 420.17 430.48 244.811 418.494 37.2434C417.06 12.3941 417.066 -59.7617 418.505 -84.4542C430.568 -291.453 493.177 -469.206 599.372 -597.954C630.354 -635.517 655.702 -660.887 714.392 -713.073C752.853 -747.273 764.665 -758.187 780.735 -774.379C840.088 -834.183 875.397 -894.885 901.951 -982.775L904.923 -992.612H938.755H972.588L971.25 -990.553C970.515 -989.42 958.788 -973.832 945.191 -955.912C862.503 -846.932 824.849 -790.167 785.929 -715.818C702.36 -556.177 650.64 -365.014 634.916 -157.656C628.728 -76.0553 628.318 16.4834 633.794 95.3472C651.667 352.749 719.778 574.129 837.996 759.058C865.338 801.829 889.291 835.461 941.712 904.682C995.829 976.142 1015.27 1003.66 1038.93 1042.33C1046.45 1054.62 1052.61 1065.02 1052.61 1065.43C1052.61 1065.85 1027.6 1066.18 997.029 1066.18H941.449L939.109 1060.01Z" fill="#049CF8"></path><path d="M880.901 1058.63C879.019 1038.75 880.419 1020.06 886.3 986.577C888.377 974.75 890.658 959.721 891.37 953.178C895.432 915.801 883.415 885.131 858.727 869.866C849.844 864.374 843.393 861.772 822.628 855.304C795.219 846.767 780.31 838.633 765.571 824.176C744.744 803.749 734.348 787.109 705.484 728.008C696.165 708.925 685.072 687.09 680.832 679.484C659.758 641.679 636.47 613.234 605.957 588.029C588.237 573.391 572.452 562.743 528.208 535.582C507.901 523.115 483.544 507.597 474.08 501.096C390.8 443.888 330.821 366.879 288.834 263.253C238.636 139.364 222.906 -6.20899 244.491 -147.133C264.419 -277.24 316.216 -394.022 389.581 -474.253C426.497 -514.624 459.685 -540.58 525.848 -580.823C574.268 -610.274 588.174 -619.759 609.874 -638.133C631.091 -656.098 647.54 -674.4 663.442 -697.736C676.845 -717.404 684.515 -731.449 705.551 -774.837C712.748 -789.683 721.472 -807.183 724.938 -813.725C743.643 -849.041 763.781 -873.089 786.004 -886.65C796.24 -892.896 805.149 -896.56 825.486 -902.887C845.411 -909.085 854.79 -913.287 863.36 -919.857C881.416 -933.7 890.289 -952.572 892.028 -980.828L892.753 -992.612H898.7C901.971 -992.612 904.648 -992.382 904.648 -992.1C904.648 -990.714 897.144 -967.424 891.851 -952.381C866.33 -879.854 833.976 -828.025 780.734 -774.379C764.664 -758.187 752.853 -747.273 714.392 -713.073C655.702 -660.887 630.354 -635.517 599.372 -597.954C493.177 -469.206 430.568 -291.453 418.504 -84.4542C417.065 -59.7617 417.059 12.3941 418.494 37.2434C424.514 141.501 442.562 235.47 473.414 323.187C513.453 437.027 570.8 528.799 651.808 608.673C670.103 626.712 680.796 636.558 718.887 670.437C756.088 703.524 766.141 712.895 783.776 730.92C810.503 758.239 829.511 782.187 847.25 810.893C875.18 856.09 890.907 895.673 915.234 982.002C926.099 1020.56 937.608 1057.66 940.848 1064.58C941.55 1066.08 939.713 1066.18 911.606 1066.18H881.615L880.901 1058.63Z" fill="#1931E3"></path><path d="M1953.21 494.068C1929.9 526.374 1907.01 559.025 1878.57 587.619C1835.77 632.025 1788.66 672.827 1744.31 715.954C1725.01 734.655 1705.18 752.941 1689.09 774.172C1657.69 814.04 1633.78 858.796 1617.33 905.747C1605.37 939.949 1595.48 974.658 1584.69 1009.16C1579.63 1026.07 1574.12 1042.97 1569.87 1060.03C1570.93 1062.9 1574.92 1061.48 1577.33 1061.99C1633.42 1063.5 1689.62 1061.55 1745.66 1063.99C1749 1064.54 1752.11 1065.77 1755.6 1065.63C1778.09 1067 1800.65 1066.62 1823.18 1066.9C1867.14 1067.09 1911.11 1066.9 1955.07 1066.97C1955.07 875.153 1955.07 683.332 1955.07 491.512C1954.45 492.364 1953.83 493.216 1953.21 494.068Z" fill="#002381"></path><path d="M1570.15 1064.57C1574 1054.41 1585.12 1018.15 1593.51 988.393C1618.44 899.953 1633.89 860.963 1662.01 815.455C1679.75 786.749 1698.76 762.801 1725.48 735.482C1743.12 717.457 1753.17 708.086 1790.37 674.999C1854.39 618.056 1879.62 592.905 1910.2 555.507C2017.14 424.732 2078.78 249.373 2090.77 41.8054C2092.2 16.9561 2092.19 -55.1999 2090.76 -79.8924C2078.69 -286.892 2016.08 -464.644 1909.89 -593.393C1878.91 -630.955 1853.56 -656.325 1794.87 -708.511C1756.41 -742.711 1744.6 -753.625 1728.53 -769.817C1669.17 -829.621 1633.86 -890.323 1607.31 -978.213L1604.34 -988.05H1570.51H1536.67L1538.01 -985.991C1538.75 -984.859 1550.47 -969.27 1564.07 -951.35C1646.76 -842.37 1684.41 -785.605 1723.33 -711.256C1806.9 -551.615 1858.62 -360.452 1874.34 -153.094C1880.53 -71.4933 1880.94 21.0452 1875.47 99.909C1857.59 357.311 1789.48 578.691 1671.26 763.62C1643.92 806.391 1619.97 840.023 1567.55 909.244C1513.43 980.704 1493.99 1008.22 1470.33 1046.89C1462.81 1059.19 1456.65 1069.58 1456.65 1070C1456.65 1070.41 1481.66 1070.75 1512.23 1070.75H1567.81L1570.15 1064.57Z" fill="#A2197D"></path><path d="M1623.68 1064.15C1625.57 1044.26 1624.16 1025.57 1618.28 992.089C1616.21 980.263 1613.93 965.233 1613.21 958.691C1609.15 921.314 1621.17 890.643 1645.86 875.379C1654.74 869.886 1661.19 867.284 1681.96 860.817C1709.36 852.279 1724.27 844.145 1739.01 829.689C1759.84 809.262 1770.24 792.621 1799.1 733.52C1808.42 714.438 1819.51 692.603 1823.75 684.996C1844.83 647.192 1868.11 618.747 1898.63 593.542C1916.35 578.904 1932.13 568.256 1976.38 541.095C1996.68 528.628 2021.04 513.11 2030.5 506.609C2113.78 449.4 2173.76 372.392 2215.75 268.766C2265.95 144.876 2281.68 -0.69629 2260.09 -141.62C2240.17 -271.727 2188.37 -388.509 2115 -468.74C2078.09 -509.112 2044.9 -535.067 1978.74 -575.31C1930.32 -604.762 1916.41 -614.247 1894.71 -632.621C1873.49 -650.585 1857.04 -668.888 1841.14 -692.223C1827.74 -711.892 1820.07 -725.937 1799.03 -769.324C1791.84 -784.17 1783.11 -801.67 1779.65 -808.212C1760.94 -843.528 1740.8 -867.576 1718.58 -881.137C1708.34 -887.384 1699.43 -891.047 1679.1 -897.374C1659.17 -903.572 1649.79 -907.774 1641.22 -914.345C1623.17 -928.187 1614.29 -947.059 1612.56 -975.316L1611.83 -987.099H1605.88C1602.61 -987.099 1599.94 -986.869 1599.94 -986.588C1599.94 -985.201 1607.44 -961.911 1612.73 -946.869C1638.25 -874.342 1670.61 -822.512 1723.85 -768.867C1739.92 -752.675 1751.73 -741.76 1790.19 -707.56C1848.88 -655.374 1874.23 -630.004 1905.21 -592.442C2011.41 -463.693 2074.02 -285.941 2086.08 -78.9415C2087.52 -54.249 2087.52 17.9068 2086.09 42.7561C2080.07 147.014 2062.02 240.983 2031.17 328.7C1991.13 442.54 1933.78 534.312 1852.78 614.186C1834.48 632.224 1823.79 642.071 1785.7 675.95C1748.5 709.037 1738.44 718.408 1720.81 736.433C1694.08 763.752 1675.07 787.7 1657.33 816.405C1629.4 861.603 1613.68 901.185 1589.35 987.514C1578.48 1026.07 1566.98 1063.18 1563.74 1070.1C1563.03 1071.6 1564.87 1071.7 1592.98 1071.7H1622.97L1623.68 1064.15Z" fill="#800080"></path></g><defs><clipPath id="clip0_5439_176511"><rect width="1920" height="1060" fill="white"></rect></clipPath></defs></svg> 