<?xml version="1.0" encoding="UTF-8"?> <svg xmlns="http://www.w3.org/2000/svg" width="1920" height="1060" viewBox="0 0 1920 1060" fill="none"><g clip-path="url(#clip0_5439_176540)"><path d="M14.0789 1060.8H1849.56V-2.97864H14.0789V1060.8Z" fill="#E22D1A"></path><path d="M185.663 -4.72795C183.618 4.49481 165.735 159.842 158.513 231.12C136.161 451.725 124.429 635.39 117.22 877.568C115.341 940.686 114.649 1150.74 116.073 1225.27C121.228 1494.98 137.98 1754.52 166.858 2012.19C168.972 2031.05 170.702 2047.63 170.702 2049.02V2051.55H-19.5293V-7.22327H186.224L185.663 -4.72795Z" fill="#E22D1A"></path><path d="M1947.29 528.913V1060.8H917.435L917.766 1054.72C918.56 1040.11 922.614 1030.36 930.863 1023.21C934.779 1019.82 939.063 1017.64 948.166 1014.44C957.457 1011.17 961.527 1009.28 966.204 1006.05C976.356 999.046 985.557 986.62 994.102 968.372C995.685 964.992 999.671 955.95 1002.96 948.279C1012.57 925.86 1016.07 918.603 1022.2 908.441C1029.46 896.383 1036.98 886.926 1046.67 877.644C1056.58 868.15 1062.94 863.249 1085.06 848.032C1115.28 827.238 1130.45 813.827 1147.31 792.966C1198.78 729.314 1225.21 624.127 1216.15 518.983C1210.14 449.156 1188.99 385.353 1156.59 339.322C1146.64 325.186 1137.04 314.159 1124.7 302.677C1114.23 292.926 1104.81 285.643 1083.98 271.183C1063.77 257.148 1056.56 251.647 1048.46 244.083C1034.52 231.06 1023.88 216.362 1014.25 196.829C1012.32 192.898 1007.25 181.616 1002.99 171.756C989.805 141.219 985.056 132.621 975.541 122.066C968.807 114.596 961.995 110.394 949.474 105.982C939.987 102.64 937.04 101.296 932.982 98.4575C921.703 90.5704 916.213 74.7229 918.069 55.4103C918.394 52.0299 919.439 44.2542 920.392 38.131C922.786 22.7416 923.377 15.371 923.015 5.41257L922.71 -2.97949H1947.28L1947.29 528.913Z" fill="#002381"></path><path d="M895.397 13.5692C917.733 50.8323 939.371 81.5803 994.388 154.225C1046.81 223.446 1070.76 257.076 1098.11 299.849C1216.32 484.777 1284.43 706.158 1302.31 963.555C1306.53 1024.38 1307.3 1117.59 1304.04 1174.01C1288.94 1435.54 1225.82 1655.03 1111.83 1842.44C1081.11 1892.95 1055.94 1928.86 992.725 2012.41L963.127 2051.52H928.198C898.885 2051.52 893.364 2051.32 893.861 2050.26C895.628 2046.47 912.668 1993.82 920.696 1967.34C984.034 1758.45 1021.46 1523.22 1033.67 1257.3C1038.47 1152.78 1038.46 1012.62 1033.65 906.85C1020.98 628.082 979.912 380.774 910.155 163.195C894.128 113.202 869.198 44.189 852.469 3.49579L848.049 -7.25562L882.94 -7.20252L895.397 13.5692Z" fill="#4CE55C"></path><path d="M901.573 -4.72794C863.757 21.4435 807.446 530.142 808.833 745.83C809.528 857.517 809.526 1306.61 808.833 1418.85C807.231 1677.64 805.508 1820.57 801.517 2025.73L801.014 2051.57H613.014L611.436 2013.83C600.167 1744.31 594.103 1496.45 592.141 1225.31C588.893 821.855 636.887 146.396 775.786 -5.18134L775.999 -7.24011H901.566L901.573 -4.72794Z" fill="#FB9601"></path><path d="M917.734 -6.57174C918.258 -5.40068 887.724 -17.6747 893.368 5.85429C952.716 253.285 1025.61 581.1 1034.98 906.854C1038.02 1012.63 1038.02 1152.79 1034.99 1257.31C1027.27 1523.24 1003.61 1758.37 963.551 1967.35C958.342 1994.52 948.977 2040.41 946.977 2048.55L946.247 2051.53H790.882V2046.27C790.882 2043.37 791.349 2027.62 791.918 2011.27C801.199 1744.73 805.607 1395.41 804.711 997.41C799.825 770.806 786.709 271.674 895.235 -4.76714L882.375 -7.28347L917.734 -6.57174Z" fill="#F1F13A"></path><path d="M1776.93 1298.71C1777.97 1298.09 1778.66 1297.67 1779.79 1296.99C1810.22 1278.76 1823.36 1269.89 1839.42 1256.77C1894.47 1211.78 1926.93 1149.68 1933.18 1077.36C1933.93 1068.74 1933.94 1043.54 1933.19 1034.85C1926.98 962.338 1895.02 901.073 1839.58 855.388C1823.72 842.322 1810.65 833.539 1777.46 813.645C1777.25 813.519 1777.14 813.446 1776.93 813.321V866.591C1801.14 911.38 1816.03 960.719 1821.58 1014.57C1824.42 1042.12 1824.2 1074.43 1820.99 1102.94C1815.27 1153.84 1800.34 1201.96 1776.93 1245.41L1776.93 1298.71Z" fill="#000085"></path><path d="M1653.93 1409.35C1655.38 1408.45 1656.34 1407.85 1657.9 1406.89C1700.1 1380.84 1718.32 1368.17 1740.6 1349.43C1816.96 1285.18 1861.97 1196.47 1870.65 1093.16C1871.68 1080.84 1871.69 1044.85 1870.66 1032.44C1862.04 928.86 1817.72 841.346 1740.82 776.087C1718.83 757.423 1700.7 744.878 1654.66 716.458C1654.37 716.278 1654.22 716.173 1653.93 715.995V792.086C1687.51 856.065 1708.16 926.544 1715.86 1003.46C1719.79 1042.81 1719.49 1088.98 1715.05 1129.7C1707.1 1202.4 1686.39 1271.13 1653.93 1333.21L1653.93 1409.35Z" fill="#0000AA"></path><path d="M1461.97 1503.67C1464.33 1502.51 1465.88 1501.75 1468.43 1500.5C1537.12 1466.96 1566.78 1450.64 1603.04 1426.5C1727.33 1343.75 1800.6 1229.5 1814.72 1096.45C1816.41 1080.58 1816.43 1034.22 1814.75 1018.25C1800.72 884.834 1728.56 772.126 1603.4 688.073C1567.6 664.035 1538.09 647.877 1463.16 611.277C1462.68 611.045 1462.43 610.91 1461.97 610.681V708.681C1516.62 791.08 1550.23 881.856 1562.76 980.915C1569.17 1031.6 1568.69 1091.06 1561.44 1143.51C1548.51 1237.14 1514.8 1325.67 1461.97 1405.61L1461.97 1503.67Z" fill="#0000D4"></path><path d="M996.991 -1.08736C1000.84 9.07294 1011.96 45.3319 1020.35 75.089C1045.28 163.529 1060.73 202.521 1088.85 248.027C1106.59 276.732 1125.59 300.682 1152.32 328C1169.96 346.024 1180.01 355.395 1217.21 388.484C1281.24 445.427 1306.45 470.579 1337.04 507.977C1443.98 638.752 1505.62 814.11 1517.6 1021.67C1519.03 1046.52 1519.03 1118.67 1517.59 1143.36C1505.53 1350.36 1442.92 1528.12 1336.72 1656.86C1305.74 1694.42 1280.39 1719.8 1221.7 1771.98C1183.24 1806.18 1171.43 1817.1 1155.36 1833.29C1096 1893.09 1060.7 1953.79 1034.14 2041.69L1031.17 2051.52H963.507L964.844 2049.46C965.579 2048.33 977.306 2032.74 990.903 2014.82C1073.59 1905.84 1111.25 1849.08 1150.17 1774.73C1233.73 1615.09 1285.46 1423.93 1301.18 1216.55C1307.36 1134.95 1307.78 1042.41 1302.3 963.546C1284.43 706.144 1216.31 484.75 1098.1 299.841C1070.75 257.07 1046.8 223.438 994.379 154.216C940.261 82.7583 920.825 55.237 897.161 16.5673C889.637 4.27236 883.481 -6.12419 883.481 -6.53694C883.481 -6.94931 908.492 -7.28699 939.058 -7.28699H994.635L996.991 -1.08736Z" fill="#049CF8"></path><path d="M1055.22 0.28362C1057.1 20.1688 1055.7 38.8574 1049.82 72.3419C1047.74 84.1684 1045.46 99.1978 1044.75 105.74C1040.69 143.117 1052.71 173.789 1077.39 189.05C1086.28 194.543 1092.73 197.145 1113.49 203.613C1140.9 212.15 1155.81 220.284 1170.55 234.741C1191.38 255.168 1201.77 271.808 1230.63 330.911C1239.95 349.994 1251.05 371.829 1255.29 379.434C1276.36 417.238 1299.65 445.682 1330.16 470.886C1347.88 485.524 1363.67 496.172 1407.91 523.333C1428.22 535.8 1452.58 551.318 1462.04 557.818C1545.32 615.026 1605.3 692.035 1647.29 795.661C1697.48 919.552 1713.21 1065.12 1691.63 1206.05C1671.7 1336.16 1619.91 1452.94 1546.54 1533.17C1509.62 1573.54 1476.44 1599.5 1410.27 1639.74C1361.85 1669.19 1347.95 1678.68 1326.25 1697.05C1305.03 1715.02 1288.58 1733.32 1272.68 1756.66C1259.27 1776.33 1251.6 1790.37 1230.57 1833.76C1223.37 1848.61 1214.65 1866.11 1211.18 1872.65C1192.47 1907.97 1172.34 1932.01 1150.11 1945.57C1139.88 1951.82 1130.97 1955.48 1110.63 1961.81C1090.71 1968.01 1081.33 1972.21 1072.76 1978.78C1054.7 1992.62 1045.83 2011.5 1044.09 2039.75L1043.37 2051.54H1037.42C1034.15 2051.54 1031.47 2051.31 1031.47 2051.02C1031.47 2049.64 1038.98 2026.35 1044.27 2011.31C1069.79 1938.78 1102.14 1886.95 1155.39 1833.3C1171.46 1817.11 1183.27 1806.2 1221.73 1772C1280.41 1719.81 1305.77 1694.44 1336.75 1656.88C1442.94 1528.13 1505.55 1350.37 1517.62 1143.38C1519.06 1118.68 1519.06 1046.53 1517.63 1021.68C1511.61 917.42 1493.56 823.453 1462.71 735.736C1422.67 621.897 1365.32 530.123 1284.31 450.25C1266.02 432.211 1255.32 422.365 1217.23 388.484C1180.03 355.397 1169.98 346.026 1152.35 328C1125.62 300.681 1106.61 276.73 1088.87 248.027C1060.94 202.83 1045.21 163.246 1020.89 76.9191C1010.02 38.3653 998.515 1.258 995.275 -5.66368C994.573 -7.16442 996.41 -7.26489 1024.52 -7.26489H1054.51L1055.22 0.28362Z" fill="#1931E3"></path><path d="M-17.1275 564.845C6.18371 532.539 29.0725 499.888 57.5084 471.293C100.308 426.888 147.427 386.087 191.772 342.959C211.065 324.258 230.902 305.972 246.993 284.739C278.394 244.871 302.295 200.114 318.752 153.166C330.706 118.964 340.597 84.2564 351.385 49.7473C356.449 32.836 361.956 15.9406 366.212 -1.1206C365.147 -3.99045 361.16 -2.57571 358.748 -3.08079C302.658 -4.58834 246.456 -2.63774 190.422 -5.08023C187.075 -5.62881 183.967 -6.85914 180.481 -6.72392C157.99 -8.08722 135.425 -7.7089 112.9 -7.99017C68.9363 -8.1859 24.973 -7.99003 -18.9902 -8.06473C-18.9902 183.756 -18.9902 375.578 -18.9902 567.418C-18.3708 566.566 -17.7513 565.714 -17.1319 564.862L-17.1275 564.845Z" fill="#002381"></path><path d="M365.953 -5.62617C362.104 4.53413 350.987 40.7931 342.597 70.5501C317.66 158.991 302.216 197.982 274.095 243.488C256.356 272.194 237.349 296.143 210.62 323.461C192.986 341.485 182.933 350.856 145.733 383.945C81.7089 440.888 56.4897 466.041 25.9086 503.439C-81.0314 634.213 -142.671 809.572 -154.656 1017.13C-156.091 1041.98 -156.085 1114.13 -154.646 1138.82C-142.582 1345.82 -79.9743 1523.58 26.2237 1652.32C57.2058 1689.89 82.5526 1715.26 141.245 1767.44C179.706 1801.64 191.517 1812.56 207.586 1828.75C266.939 1888.55 302.247 1949.26 328.803 2037.15L331.775 2046.98H399.437L398.1 2044.93C397.365 2043.79 385.638 2028.2 372.041 2010.28C289.354 1901.31 251.698 1844.54 212.777 1770.19C129.211 1610.55 77.4869 1419.39 61.7669 1212.01C55.579 1130.41 55.1683 1037.87 60.6446 959.008C78.5181 701.605 146.63 480.211 264.848 295.302C292.189 252.531 316.14 218.899 368.565 149.677C422.683 78.2195 442.119 50.6982 465.783 12.0285C473.307 -0.26645 479.463 -10.663 479.463 -11.0757C479.463 -11.4881 454.452 -11.8256 423.886 -11.8256H368.309L365.953 -5.62617Z" fill="#A2197D"></path><path d="M312.419 -5.20075C310.537 14.6844 311.937 33.373 317.818 66.8576C319.895 78.684 322.177 93.7136 322.888 100.256C326.95 137.633 314.933 168.305 290.245 183.566C281.362 189.059 274.911 191.661 254.147 198.129C226.738 206.666 211.828 214.8 197.091 229.256C176.264 249.684 165.868 266.324 137.006 325.427C127.687 344.509 116.593 366.345 112.354 373.95C91.2797 411.754 67.9919 440.197 37.4788 465.402C19.7583 480.04 3.97323 490.688 -40.2726 517.849C-60.5796 530.315 -84.9367 545.834 -94.4008 552.334C-177.682 609.542 -237.66 686.55 -279.646 790.177C-329.844 914.067 -345.571 1059.64 -323.989 1200.57C-304.061 1330.67 -252.265 1447.45 -178.9 1527.69C-141.983 1568.06 -108.797 1594.01 -42.6339 1634.26C5.78564 1663.71 19.6922 1673.19 41.3943 1691.57C62.6111 1709.53 79.0599 1727.84 94.9634 1751.17C108.366 1770.84 116.037 1784.89 137.072 1828.28C144.27 1843.12 152.994 1860.62 156.459 1867.17C175.165 1902.48 195.302 1926.53 217.525 1940.09C227.761 1946.34 236.67 1950 257.007 1956.33C276.932 1962.52 286.31 1966.73 294.88 1973.3C312.936 1987.14 321.809 2006.01 323.548 2034.27L324.273 2046.05H330.22C333.491 2046.05 336.168 2045.82 336.168 2045.54C336.168 2044.15 328.664 2020.86 323.371 2005.82C297.851 1933.29 265.497 1881.46 212.254 1827.82C196.184 1811.63 184.372 1800.71 145.912 1766.51C87.2251 1714.33 61.8738 1688.96 30.8911 1651.39C-75.3017 1522.64 -137.912 1344.89 -149.978 1137.89C-151.417 1113.2 -151.423 1041.05 -149.988 1016.2C-143.968 911.936 -125.92 817.969 -95.0674 730.252C-55.0283 616.413 2.31755 524.639 83.3268 444.765C101.621 426.727 112.315 416.881 150.405 383C187.605 349.913 197.659 340.542 215.293 322.516C242.021 295.197 261.028 271.246 278.768 242.543C306.697 197.345 322.424 157.762 346.751 71.4347C357.615 32.8809 369.125 -4.22615 372.364 -11.1478C373.067 -12.6486 371.23 -12.7493 343.123 -12.7493H313.132L312.419 -5.20075Z" fill="#800080"></path></g><defs><clipPath id="clip0_5439_176540"><rect width="1920" height="1060" fill="white"></rect></clipPath></defs></svg> 