<svg id="ikon" xmlns="http://www.w3.org/2000/svg" xmlns:xlink="http://www.w3.org/1999/xlink" viewBox="0 0 760.86 200">
  <defs>
    <linearGradient id="linear-gradient" x1="-520.82" y1="-1356.28" x2="-520.82" y2="-1174.73" gradientTransform="translate(622.19 1363.6)" gradientUnits="userSpaceOnUse">
      <stop offset="0" stop-color="#6a5376"/>
      <stop offset="1" stop-color="#431a42"/>
    </linearGradient>
  </defs>
  <title>products</title>
  <g>
    <path d="M318.39,25v10H289.94V46.5h26.12v9.21H289.94V68.92H319v10H278.09V25h40.31Z" style="fill: #291336"/>
    <path d="M338.78,25l22.5,36.16h0.15V25h11.1v53.9H360.67L338.25,42.8H338.1V78.88H327V25h11.78Z" style="fill: #291336"/>
    <path d="M406.18,25a27.78,27.78,0,0,1,9.7,1.66,21.08,21.08,0,0,1,7.78,5,23,23,0,0,1,5.13,8.3,33.6,33.6,0,0,1,1.85,11.7,37.36,37.36,0,0,1-1.51,10.87,23.94,23.94,0,0,1-4.57,8.61,21.4,21.4,0,0,1-7.62,5.7,25.79,25.79,0,0,1-10.76,2.08H382.94V25h23.25Zm-0.83,43.93a15.21,15.21,0,0,0,5-.83,11,11,0,0,0,4.3-2.76,13.85,13.85,0,0,0,3-5,22.08,22.08,0,0,0,1.13-7.55A31.43,31.43,0,0,0,418,45.4a14.68,14.68,0,0,0-2.6-5.62,11.55,11.55,0,0,0-4.79-3.59,19.14,19.14,0,0,0-7.36-1.25h-8.46v34h10.57Z" style="fill: #291336"/>
    <path d="M463.18,25a22.46,22.46,0,0,1,8.61,1.47,16.12,16.12,0,0,1,5.78,3.89,15,15,0,0,1,3.25,5.51,20.58,20.58,0,0,1,0,12.79,14.88,14.88,0,0,1-3.25,5.55,16.1,16.1,0,0,1-5.78,3.89,22.45,22.45,0,0,1-8.61,1.47H450.72V78.88H438.87V25h24.31Zm-3.25,25.36a24.78,24.78,0,0,0,3.92-.3,9.11,9.11,0,0,0,3.32-1.17,6.38,6.38,0,0,0,2.3-2.45,8.63,8.63,0,0,0,.87-4.15,8.63,8.63,0,0,0-.87-4.15,6.39,6.39,0,0,0-2.3-2.45,9.15,9.15,0,0,0-3.32-1.17,24.93,24.93,0,0,0-3.92-.3h-9.21V50.35h9.21Z" style="fill: #291336"/>
    <path d="M488.69,40.95a26.94,26.94,0,0,1,5.21-9,23.83,23.83,0,0,1,8.34-6,29.51,29.51,0,0,1,22.31,0,23.92,23.92,0,0,1,8.3,6,27,27,0,0,1,5.21,9,33.67,33.67,0,0,1,1.81,11.21,32.55,32.55,0,0,1-1.81,11A26.25,26.25,0,0,1,532.85,72a23.94,23.94,0,0,1-8.3,5.93,30,30,0,0,1-22.31,0A23.85,23.85,0,0,1,493.9,72a26.23,26.23,0,0,1-5.21-8.87,32.57,32.57,0,0,1-1.81-11A33.7,33.7,0,0,1,488.69,40.95Zm10.83,17.81a17.82,17.82,0,0,0,2.53,5.77,13,13,0,0,0,4.53,4.11,15.69,15.69,0,0,0,13.59,0,13,13,0,0,0,4.53-4.11,17.84,17.84,0,0,0,2.53-5.77,27.44,27.44,0,0,0,.79-6.6,29.51,29.51,0,0,0-.79-6.87,18.2,18.2,0,0,0-2.53-5.93,12.85,12.85,0,0,0-4.53-4.15,15.69,15.69,0,0,0-13.59,0,12.83,12.83,0,0,0-4.53,4.15,18.18,18.18,0,0,0-2.53,5.93,29.51,29.51,0,0,0-.79,6.87A27.44,27.44,0,0,0,499.52,58.76Z" style="fill: #291336"/>
    <path d="M559.8,25v53.9H547.95V25H559.8Z" style="fill: #291336"/>
    <path d="M582,25l22.5,36.16h0.15V25h11.1v53.9H603.88L581.46,42.8h-0.15V78.88h-11.1V25H582Z" style="fill: #291336"/>
    <path d="M621.92,34.95V25h44.16v10H649.93V78.88H638.08V34.95H621.92Z" style="fill: #291336"/>
  </g>
  <g>
    <path d="M302.39,108.64a22.46,22.46,0,0,1,8.61,1.47,16.12,16.12,0,0,1,5.78,3.89,15,15,0,0,1,3.25,5.51,20.58,20.58,0,0,1,0,12.79,14.88,14.88,0,0,1-3.25,5.55,16.1,16.1,0,0,1-5.78,3.89,22.45,22.45,0,0,1-8.61,1.47H289.94v19.32H278.09v-53.9h24.31ZM299.15,134a24.78,24.78,0,0,0,3.92-.3,9.11,9.11,0,0,0,3.32-1.17,6.38,6.38,0,0,0,2.3-2.45,10.36,10.36,0,0,0,0-8.3,6.39,6.39,0,0,0-2.3-2.45,9.15,9.15,0,0,0-3.32-1.17,24.93,24.93,0,0,0-3.92-.3h-9.21V134h9.21Z" style="fill: #291336"/>
    <path d="M357.5,108.64a17.35,17.35,0,0,1,6.53,1.17,15.05,15.05,0,0,1,5,3.21,13.93,13.93,0,0,1,3.17,4.72,15.13,15.13,0,0,1,1.09,5.77,16.21,16.21,0,0,1-2,8.23,12.57,12.57,0,0,1-6.53,5.28v0.15a9.16,9.16,0,0,1,3.62,1.85,10.27,10.27,0,0,1,2.34,2.94A13.7,13.7,0,0,1,372,145.7a32.63,32.63,0,0,1,.57,4.08q0.07,1.28.15,3t0.26,3.55a23.61,23.61,0,0,0,.6,3.43,7.9,7.9,0,0,0,1.25,2.76H363a20.89,20.89,0,0,1-1.21-6.11q-0.23-3.55-.68-6.79-0.6-4.23-2.57-6.19t-6.42-2H340.29v21.06H328.43v-53.9H357.5ZM353.27,133q4.08,0,6.12-1.81t2-5.89q0-3.92-2-5.7t-6.12-1.77h-13V133h13Z" style="fill: #291336"/>
    <path d="M382.41,124.6a26.94,26.94,0,0,1,5.21-9,23.83,23.83,0,0,1,8.34-6,29.51,29.51,0,0,1,22.31,0,23.92,23.92,0,0,1,8.3,6,27,27,0,0,1,5.21,9,33.67,33.67,0,0,1,1.81,11.21,32.55,32.55,0,0,1-1.81,11,26.25,26.25,0,0,1-5.21,8.87,23.94,23.94,0,0,1-8.3,5.93,30,30,0,0,1-22.31,0,23.85,23.85,0,0,1-8.34-5.93,26.23,26.23,0,0,1-5.21-8.87,32.57,32.57,0,0,1-1.81-11A33.7,33.7,0,0,1,382.41,124.6Zm10.83,17.81a17.82,17.82,0,0,0,2.53,5.77,13,13,0,0,0,4.53,4.11,15.69,15.69,0,0,0,13.59,0,13,13,0,0,0,4.53-4.11,17.84,17.84,0,0,0,2.53-5.77,27.44,27.44,0,0,0,.79-6.6,29.51,29.51,0,0,0-.79-6.87,18.2,18.2,0,0,0-2.53-5.93,12.85,12.85,0,0,0-4.53-4.15,15.69,15.69,0,0,0-13.59,0,12.83,12.83,0,0,0-4.53,4.15,18.18,18.18,0,0,0-2.53,5.93,29.51,29.51,0,0,0-.79,6.87A27.44,27.44,0,0,0,393.24,142.42Z" style="fill: #291336"/>
    <path d="M437.43,118.6v-10h44.16v10H465.44v43.93H453.59V118.6H437.43Z" style="fill: #291336"/>
    <path d="M528.09,108.64v10H499.63v11.55h26.12v9.21H499.63v13.21H528.7v10H487.78v-53.9h40.31Z" style="fill: #291336"/>
    <path d="M571.27,123a11.92,11.92,0,0,0-2.64-3,12.37,12.37,0,0,0-7.77-2.72,13.84,13.84,0,0,0-6.79,1.55,12.83,12.83,0,0,0-4.53,4.15,18.18,18.18,0,0,0-2.53,5.93,29.51,29.51,0,0,0-.79,6.87,27.44,27.44,0,0,0,.79,6.6,17.82,17.82,0,0,0,2.53,5.77,13,13,0,0,0,4.53,4.11,13.83,13.83,0,0,0,6.79,1.55q5.43,0,8.49-3.32a15.36,15.36,0,0,0,3.74-8.76h11.47a27.42,27.42,0,0,1-2.34,9.13,21.88,21.88,0,0,1-5,6.94,21.17,21.17,0,0,1-7.25,4.38,26.56,26.56,0,0,1-9.13,1.51,27.64,27.64,0,0,1-11.13-2.15,23.85,23.85,0,0,1-8.34-5.93,26.23,26.23,0,0,1-5.21-8.87,32.57,32.57,0,0,1-1.81-11,33.7,33.7,0,0,1,1.81-11.21,26.94,26.94,0,0,1,5.21-9,23.83,23.83,0,0,1,8.34-6,28.9,28.9,0,0,1,19.55-.91,22.81,22.81,0,0,1,7.1,3.74,20.2,20.2,0,0,1,5.17,6.08,21.72,21.72,0,0,1,2.57,8.3H572.63A9.68,9.68,0,0,0,571.27,123Z" style="fill: #291336"/>
    <path d="M588.41,118.6v-10h44.16v10H616.41v43.93H604.56V118.6H588.41Z" style="fill: #291336"/>
    <path d="M638.22,124.6a26.94,26.94,0,0,1,5.21-9,23.83,23.83,0,0,1,8.34-6,29.51,29.51,0,0,1,22.31,0,23.92,23.92,0,0,1,8.3,6,27,27,0,0,1,5.21,9,33.67,33.67,0,0,1,1.81,11.21,32.55,32.55,0,0,1-1.81,11,26.25,26.25,0,0,1-5.21,8.87,23.94,23.94,0,0,1-8.3,5.93,30,30,0,0,1-22.31,0,23.85,23.85,0,0,1-8.34-5.93,26.23,26.23,0,0,1-5.21-8.87,32.57,32.57,0,0,1-1.81-11A33.7,33.7,0,0,1,638.22,124.6Zm10.83,17.81a17.82,17.82,0,0,0,2.53,5.77,13,13,0,0,0,4.53,4.11,15.69,15.69,0,0,0,13.59,0,13,13,0,0,0,4.53-4.11,17.84,17.84,0,0,0,2.53-5.77,27.44,27.44,0,0,0,.79-6.6,29.51,29.51,0,0,0-.79-6.87,18.2,18.2,0,0,0-2.53-5.93,12.85,12.85,0,0,0-4.53-4.15,15.69,15.69,0,0,0-13.59,0,12.83,12.83,0,0,0-4.53,4.15,18.18,18.18,0,0,0-2.53,5.93,29.51,29.51,0,0,0-.79,6.87A27.44,27.44,0,0,0,649.06,142.42Z" style="fill: #291336"/>
    <path d="M726.54,108.64a17.35,17.35,0,0,1,6.53,1.17,15.05,15.05,0,0,1,5,3.21,13.93,13.93,0,0,1,3.17,4.72,15.13,15.13,0,0,1,1.09,5.77,16.21,16.21,0,0,1-2,8.23,12.57,12.57,0,0,1-6.53,5.28v0.15a9.16,9.16,0,0,1,3.62,1.85,10.27,10.27,0,0,1,2.34,2.94,13.7,13.7,0,0,1,1.32,3.74,32.63,32.63,0,0,1,.57,4.08q0.07,1.28.15,3t0.26,3.55a23.61,23.61,0,0,0,.6,3.43,7.9,7.9,0,0,0,1.25,2.76H732.05a20.89,20.89,0,0,1-1.21-6.11q-0.23-3.55-.68-6.79-0.6-4.23-2.57-6.19t-6.42-2H709.33v21.06H697.48v-53.9h29.06ZM722.32,133q4.08,0,6.12-1.81t2-5.89q0-3.92-2-5.7t-6.12-1.77h-13V133h13Z" style="fill: #291336"/>
  </g>
  <rect x="10.59" y="7.31" width="181.55" height="181.56" rx="28.37" ry="28.37" style="fill: url(#linear-gradient)"/>
  <rect x="10.59" y="7.31" width="181.55" height="181.56" rx="28.37" ry="28.37" style="fill: none;stroke: #352144;stroke-width: 6.03084566480124px"/>
  <path d="M101.14,177.28A27.39,27.39,0,0,1,74,149.7V50.27a27.4,27.4,0,0,1,27.4-27.18h0.24a27.41,27.41,0,0,1,27.16,27.61v99.43a27.4,27.4,0,0,1-27.4,27.15h-0.24Z" style="fill: #322144;fill-rule: evenodd"/>
  <path d="M121.44,50.1A20.07,20.07,0,1,1,101.37,30,20.07,20.07,0,0,1,121.44,50.1h0Z" style="fill: #e3282c;fill-rule: evenodd"/>
  <path d="M121.44,100.93a20.07,20.07,0,1,1-20.07-20.07,20.06,20.06,0,0,1,20.07,20.07h0Z" style="fill: #f8ac41;fill-rule: evenodd"/>
  <path d="M121.44,151.76a20.07,20.07,0,1,1-20.07-20.07,20.09,20.09,0,0,1,20.07,20.07h0Z" style="fill: #3bae49;fill-rule: evenodd"/>
</svg>
