<svg version="1.1" viewBox="0 0 3777.7 2242" xmlns="http://www.w3.org/2000/svg">
 <g transform="translate(1018.8 -4771.4)">
  <rect transform="scale(-1)" x="-2620.3" y="-7015.1" width="3611.4" height="2250" color="#000000" fill="#e22d1a"/>
  <path d="m-653.5 4761.4c-4.0231 19.507-39.209 348.08-53.418 498.84-43.98 466.6-67.063 855.07-81.247 1367.3-3.6965 133.5-5.0593 577.78-2.2561 735.43 10.143 570.45 43.102 1119.4 99.921 1664.4 4.1603 39.899 7.564 74.953 7.564 77.898v5.354h-374.29v-4354.5h404.83z" fill="#e22d1a"/>
  <path d="m2812.6 5890.1v1125h-2026.3l0.6517-12.878c1.5629-30.881 9.5393-51.506 25.77-66.634 7.7035-7.1803 16.134-11.773 34.044-18.547 18.281-6.914 26.289-10.918 35.49-17.744 19.976-14.821 38.078-41.102 54.892-79.698 3.115-7.15 10.957-26.275 17.427-42.5 18.908-47.417 25.803-62.766 37.851-84.261 14.294-25.503 29.08-45.505 48.152-65.138 19.506-20.08 32.006-30.446 75.53-62.633 59.473-43.981 89.306-72.347 122.49-116.47 101.26-134.63 153.26-357.11 135.45-579.5-11.825-147.69-53.447-282.64-117.2-380-19.578-29.897-38.455-53.22-62.734-77.507-20.617-20.624-39.145-36.028-80.124-66.613-39.77-29.684-53.96-41.321-69.888-57.318-27.427-27.546-48.361-58.633-67.304-99.948-3.8112-8.3124-13.783-32.176-22.16-53.03-25.945-64.59-35.29-82.776-54.011-105.1-13.249-15.799-26.651-24.688-51.288-34.019-18.666-7.0686-24.464-9.9123-32.449-15.915-22.192-16.682-32.994-50.201-29.342-91.049 0.6393-7.15 2.696-23.596 4.5704-36.547 4.7114-32.55 5.8742-48.14 5.1614-69.203l-0.6007-17.75h2015.9z" fill="#002381"/>
  <path d="m742.94 4800.1c43.946 78.815 86.52 143.85 194.77 297.5 103.14 146.41 150.27 217.54 204.07 308.01 232.6 391.14 366.61 859.38 401.78 1403.8 8.31 128.65 9.8194 325.8 3.408 445.13-29.72 553.16-153.9 1017.4-378.19 1413.8-60.444 106.82-109.96 182.79-234.34 359.49l-58.237 82.736h-68.724c-57.674 0-68.537-0.4312-67.56-2.6822 3.4772-8.0118 37.003-119.37 52.8-175.37 124.62-441.82 198.26-939.35 222.28-1501.8 9.4423-221.07 9.4303-517.52-0.03-741.24-24.933-589.62-105.74-1112.7-242.99-1572.9-31.534-105.74-80.586-251.71-113.5-337.78l-8.6977-22.74 68.65 0.112z" fill="#4ce55c"/>
  <path d="m755.09 4761.4c-74.405 55.355-185.2 1131.3-182.47 1587.5 1.366 236.23 1.3636 1186.1 0 1423.5-3.1529 547.36-6.5434 849.67-14.396 1283.6l-0.9894 54.674h-369.9l-3.1049-79.833c-22.171-570.07-34.102-1094.3-37.962-1667.8-6.3917-853.34 88.04-2282 361.33-2602.6l0.419-4.3545h247.06z" fill="#fb9601"/>
  <g>
   <path d="m786.89 4757.5c1.0304 2.4769-59.046-23.484-47.942 26.282 116.77 523.34 260.2 1216.7 278.63 1905.7 5.9824 223.72 5.99 520.17 0.019 741.24-15.192 562.48-61.74 1059.8-140.56 1501.8-10.249 57.476-28.676 154.53-32.61 171.76l-1.436 6.2899h-305.69v-11.128c0-6.1205 0.9187-39.433 2.0393-74.027 18.261-563.75 26.934-1302.6 25.171-2144.4-9.6148-479.29-35.42-1535 178.11-2119.7l-25.303-5.3222z" fill="#f1f13a"/>
   <path d="m2477.4 7518.3c2.0561-1.3266 3.4087-2.2094 5.6339-3.6425 59.864-38.562 85.714-57.323 117.32-85.08 108.32-95.138 172.18-226.49 184.48-379.45 1.4678-18.246 1.4857-71.55 0.022-89.912-12.225-153.38-75.11-282.96-184.19-379.59-31.195-27.635-56.917-46.212-122.22-88.289-0.4147-0.267-0.6304-0.4221-1.0385-0.6851v112.67c47.631 94.734 76.928 199.09 87.844 312.98 5.5858 58.276 5.163 126.63-1.1489 186.93-11.268 107.65-40.647 209.42-86.695 301.33z" fill="#000085"/>
   <path d="m2235.4 7752.3c2.8516-1.8951 4.7276-3.1558 7.8139-5.2032 83.029-55.084 118.88-81.882 162.71-121.53 150.24-135.9 238.8-323.52 255.87-542.02 2.0358-26.064 2.0606-102.2 0.031-128.43-16.956-219.09-104.17-404.19-255.47-542.22-43.267-39.475-78.942-66.01-169.52-126.12-0.5751-0.3817-0.8743-0.6031-1.4402-0.9788v160.94c66.062 135.32 106.7 284.39 121.84 447.07 7.7472 83.243 7.1607 180.89-1.5935 267.02-15.629 153.77-56.375 299.14-120.24 430.43z" fill="#00a"/>
   <path d="m1857.7 7951.8c4.6418-2.4405 7.6953-4.0643 12.719-6.7014 135.15-70.945 193.51-105.46 264.85-156.52 244.55-175.03 388.7-416.68 416.49-698.08 3.3136-33.568 3.354-131.63 0.05-165.41-27.599-282.18-169.57-520.57-415.84-698.35-70.427-50.841-128.5-85.017-275.93-162.43-0.9361-0.4914-1.4231-0.7769-2.3444-1.2605v207.28c107.53 174.28 173.67 366.28 198.32 575.8 12.611 107.21 11.656 232.97-2.5936 343.9-25.44 198.05-91.764 385.28-195.72 554.37z" fill="#0000d4"/>
  </g>
  <path d="m942.83 4769.1c7.573 21.49 29.447 98.181 45.955 161.12 49.064 187.06 79.451 269.53 134.78 365.78 34.902 60.715 72.3 111.37 124.89 169.15 34.696 38.124 54.477 57.944 127.67 127.93 125.97 120.44 175.59 173.64 235.76 252.74 210.41 276.6 331.69 647.5 355.27 1086.5 2.8232 52.559 2.8112 205.18-0.02 257.4-23.736 437.82-146.92 813.79-355.87 1086.1-60.959 79.448-110.83 133.11-226.31 243.49-75.675 72.336-98.914 95.421-130.53 129.67-116.78 126.49-186.25 254.88-238.5 440.78l-5.8473 20.805h-133.13l2.6312-4.3545c1.4473-2.395 24.52-35.366 51.273-73.269 162.69-230.5 236.78-350.57 313.36-507.82 164.42-337.66 266.19-741.98 297.12-1180.6 12.175-172.59 12.983-368.32 2.2082-535.13-35.167-544.43-169.18-1012.7-401.78-1403.8-53.796-90.465-100.92-161.6-204.07-308.01-106.48-151.14-144.72-209.35-191.28-291.14-14.804-26.005-26.916-47.995-26.916-48.868 0-0.8722 49.21-1.586 109.35-1.586h109.35z" fill="#049cf8"/>
  <path d="m1057.4 4772c3.7029 42.059 0.9478 81.587-10.623 152.41-4.087 25.014-8.5755 56.803-9.9748 70.64-7.9935 79.056 15.651 143.93 64.226 176.21 17.479 11.618 30.17 17.121 71.026 30.801 53.928 18.057 83.263 35.261 112.26 65.838 40.977 43.206 61.433 78.401 118.22 203.41 18.336 40.361 40.163 86.545 48.505 102.63 41.464 79.96 87.284 140.12 147.32 193.43 34.866 30.961 65.924 53.483 152.98 110.93 39.955 26.368 87.879 59.191 106.5 72.94 163.86 121 281.87 283.88 364.48 503.06 98.767 262.04 129.71 569.94 87.246 868.01-39.209 275.19-141.12 522.19-285.47 691.89-72.635 85.39-137.93 140.29-268.11 225.41-95.268 62.292-122.63 82.354-165.33 121.22-41.745 37.997-74.109 76.708-105.4 126.07-26.371 41.6-41.463 71.307-82.851 163.08-14.162 31.401-31.327 68.415-38.146 82.253-36.804 74.696-76.425 125.56-120.15 154.24-20.141 13.212-37.669 20.961-77.683 34.342-39.203 13.11-57.656 21.998-74.517 35.895-35.526 29.278-52.985 69.194-56.406 128.96l-1.4265 24.923h-11.702c-6.4359 0-11.702-0.4864-11.702-1.0809 0-2.9328 14.764-52.194 25.178-84.01 50.213-153.4 113.87-263.03 218.63-376.49 31.618-34.248 54.858-57.333 130.53-129.67 115.47-110.38 165.35-164.04 226.31-243.49 208.94-272.32 332.13-648.28 355.87-1086.1 2.8313-52.227 2.8433-204.84 0.02-257.4-11.844-220.52-47.355-419.27-108.06-604.8-78.779-240.78-191.61-434.89-351-603.83-35.995-38.153-57.036-58.979-131.98-130.64-73.193-69.982-92.974-89.803-127.67-127.93-52.588-57.782-89.986-108.44-124.89-169.15-54.953-95.597-85.897-179.32-133.76-361.91-21.377-81.545-44.022-160.03-50.396-174.67-1.3823-3.1742 2.2322-3.3869 57.534-3.3869h59.009z" fill="#1931e3"/>
  <g>
   <path d="m-1052.5 5966.1c45.866-68.33 90.901-137.39 146.85-197.87 84.211-93.922 176.92-180.22 264.17-271.44 37.96-39.554 76.99-78.231 108.65-123.14 61.783-84.325 108.81-178.99 141.19-278.29 23.52-72.339 42.982-145.75 64.207-218.74 9.9637-35.769 20.8-71.504 29.174-107.59-2.0969-6.07-9.94-3.078-14.686-4.1463-110.36-3.1886-220.94 0.9374-331.19-4.2287-6.5859-1.1603-12.701-3.7628-19.56-3.4768-44.253-2.8835-88.65-2.0832-132.97-2.6781-86.5-0.414-173 4e-4 -259.5-0.1576 0 405.72 1e-4 811.44 0 1217.2 1.2188-1.802 2.4375-3.6041 3.6563-5.4062z" color="#000000" fill="#002381"/>
   <path d="m-298.77 4759.5c-7.573 21.49-29.447 98.181-45.955 161.12-49.064 187.06-79.451 269.53-134.78 365.78-34.902 60.715-72.3 111.37-124.89 169.15-34.696 38.124-54.477 57.944-127.67 127.93-125.97 120.44-175.59 173.64-235.76 252.74-210.41 276.6-331.69 647.5-355.27 1086.5-2.8232 52.559-2.8112 205.18 0.02 257.4 23.736 437.82 146.92 813.79 355.87 1086.1 60.959 79.448 110.83 133.11 226.31 243.49 75.675 72.336 98.914 95.421 130.53 129.67 116.78 126.49 186.25 254.88 238.5 440.78l5.8473 20.805h133.13l-2.6312-4.3545c-1.4473-2.395-24.52-35.366-51.273-73.269-162.69-230.5-236.78-350.57-313.36-507.82-164.42-337.66-266.19-741.98-297.12-1180.6-12.175-172.59-12.983-368.32-2.2082-535.13 35.167-544.43 169.18-1012.7 401.78-1403.8 53.796-90.465 100.92-161.6 204.07-308.01 106.48-151.14 144.72-209.35 191.28-291.14 14.804-26.005 26.916-47.995 26.916-48.868 0-0.8722-49.21-1.586-109.35-1.586h-109.35z" fill="#a2197d"/>
   <path d="m-404.1 4760.4c-3.7029 42.059-0.9478 81.587 10.623 152.41 4.087 25.014 8.5755 56.803 9.9748 70.64 7.9935 79.056-15.651 143.93-64.226 176.21-17.479 11.618-30.17 17.121-71.026 30.801-53.928 18.057-83.263 35.261-112.26 65.838-40.977 43.206-61.433 78.401-118.22 203.41-18.336 40.361-40.163 86.545-48.505 102.63-41.464 79.96-87.284 140.12-147.32 193.43-34.866 30.961-65.924 53.483-152.98 110.93-39.955 26.368-87.879 59.191-106.5 72.94-163.86 121-281.87 283.88-364.48 503.06-98.766 262.04-129.71 569.94-87.246 868.01 39.209 275.19 141.12 522.19 285.47 691.89 72.635 85.39 137.93 140.29 268.11 225.41 95.268 62.292 122.63 82.354 165.33 121.22 41.745 37.997 74.109 76.708 105.4 126.07 26.371 41.6 41.463 71.307 82.851 163.08 14.162 31.401 31.327 68.415 38.145 82.253 36.804 74.696 76.426 125.56 120.15 154.24 20.141 13.212 37.669 20.961 77.683 34.342 39.203 13.11 57.656 21.998 74.517 35.895 35.526 29.278 52.985 69.194 56.406 128.96l1.4264 24.923h11.702c6.4359 0 11.702-0.4864 11.702-1.0809 0-2.9328-14.764-52.194-25.178-84.01-50.213-153.4-113.87-263.03-218.63-376.49-31.618-34.248-54.858-57.333-130.53-129.67-115.47-110.38-165.35-164.04-226.31-243.49-208.94-272.32-332.13-648.28-355.87-1086.1-2.8313-52.227-2.8433-204.84-0.02-257.4 11.845-220.52 47.355-419.27 108.06-604.8 78.779-240.78 191.61-434.89 351-603.83 35.995-38.153 57.035-58.979 131.98-130.64 73.193-69.982 92.974-89.803 127.67-127.93 52.588-57.782 89.986-108.44 124.89-169.15 54.953-95.597 85.897-179.32 133.76-361.91 21.377-81.545 44.022-160.03 50.396-174.67 1.3823-3.1742-2.2322-3.3869-57.534-3.3869h-59.009z" color="#000000" fill="#800080"/>
  </g>
 </g>
</svg>
