<?xml version="1.0" encoding="UTF-8" standalone="no"?>
<!-- Created with Inkscape (http://www.inkscape.org/) -->

<svg
     xmlns:dc="http://purl.org/dc/elements/1.1/"
     xmlns:cc="http://creativecommons.org/ns#"
     xmlns:rdf="http://www.w3.org/1999/02/22-rdf-syntax-ns#"
     xmlns:svg="http://www.w3.org/2000/svg"
     xmlns="http://www.w3.org/2000/svg"
     xmlns:sodipodi="http://sodipodi.sourceforge.net/DTD/sodipodi-0.dtd"
     xmlns:inkscape="http://www.inkscape.org/namespaces/inkscape"
     width="3777.6875"
     height="2242"
     id="svg2"
     version="1.1"
     inkscape:version="0.48.5 r10040"
     sodipodi:docname="rainbowRecourse.svg">
    <defs
         id="defs4" />
    <sodipodi:namedview
         id="base"
         pagecolor="#ffffff"
         bordercolor="#666666"
         borderopacity="1.0"
         inkscape:pageopacity="0.0"
         inkscape:pageshadow="2"
         inkscape:zoom="0.22"
         inkscape:cx="1598.3147"
         inkscape:cy="1561.6126"
         inkscape:document-units="px"
         inkscape:current-layer="layer1"
         showgrid="false"
         fit-margin-top="0"
         fit-margin-left="0"
         fit-margin-right="0"
         fit-margin-bottom="0" />
    <metadata
         id="metadata7">
        <rdf:RDF>
            <cc:Work
                 rdf:about="">
                <dc:format>image/svg+xml</dc:format>
                <dc:type
                     rdf:resource="http://purl.org/dc/dcmitype/StillImage" />
                <dc:title></dc:title>
            </cc:Work>
        </rdf:RDF>
    </metadata>
    <g
         inkscape:label="Layer 1"
         inkscape:groupmode="layer"
         id="layer1"
         transform="translate(1018.8438,-4771.375)">
        <rect
             style="color:#000000;fill:#e22d1a;fill-opacity:1;fill-rule:nonzero;stroke:none;stroke-width:1;marker:none;visibility:visible;display:inline;overflow:visible;enable-background:accumulate"
             id="rect3993"
             width="3611.4287"
             height="2250"
             x="-848.57141"
             y="4767.3623" />
        <path
             inkscape:connector-curvature="0"
             id="path3995"
             d="M 1136.4413,6994.5833 C 1116.3642,6953.8593 1096.9136,6920.2573 1047.4596,6840.8622 1000.3382,6765.2118 978.8071,6728.4569 954.2297,6681.7134 847.9651,6479.6098 786.7403,6237.6694 770.6741,5956.3622 766.8776,5889.8897 766.188,5788.0192 769.1171,5726.3622 782.6951,5440.5427 839.4281,5200.6772 941.8951,4995.8622 969.5093,4940.6658 992.1333,4901.4134 1048.9563,4810.1122 L 1075.5626,4767.3622 1106.9597,4767.3622 C 1133.3085,4767.3622 1138.2714,4767.585 1137.8251,4768.7481 1136.2365,4772.8878 1120.9197,4830.4252 1113.703,4859.3622 1056.7698,5087.65 1023.1276,5344.7251 1012.1517,5635.3622 1007.8379,5749.5873 1007.8434,5902.7661 1012.1654,6018.3622 1023.5561,6323.0215 1060.4729,6593.2903 1123.1772,6831.0832 1137.584,6885.7177 1159.9935,6961.1409 1175.0328,7005.6122 L 1179.0064,7017.3622 1163.3246,7017.3333 1147.6429,7017.3043 1136.4413,6994.5833 z"
             style="fill:#4ce55c;fill-opacity:1" />
        <path
             inkscape:connector-curvature="0"
             id="path3997"
             d="M 1178.8246,7016.6122 C 1178.0802,7015.3324 1165.6565,6977.0765 1157.6346,6951.3622 1073.2763,6680.9508 1025.476,6374.3728 1012.1654,6018.3622 1007.8434,5902.7661 1007.8379,5749.5873 1012.1517,5635.3622 1023.1276,5344.7257 1056.7562,5087.7497 1113.7011,4859.3622 1121.1058,4829.6642 1134.4179,4779.5166 1137.2605,4770.6122 L 1138.298,4767.3622 1248.7205,4767.3622 1359.1429,4767.3622 1359.1416,4773.1122 C 1359.1408,4776.2747 1358.4779,4793.4872 1357.6683,4811.3622 1344.4758,5102.654 1338.2098,5484.4374 1339.4835,5919.3622 1340.2776,6190.5236 1342.3103,6347.8736 1347.6675,6552.8622 1351.556,6701.6574 1358.346,6874.7302 1364.6547,6985.8622 1365.4665,7000.1622 1366.1334,7013.0997 1366.1368,7014.6122 L 1366.1429,7017.3622 1272.7019,7017.3622 C 1221.3094,7017.3622 1179.0646,7017.0247 1178.8246,7016.6122 z"
             style="fill:#f1f13a;fill-opacity:1" />
        <path
             inkscape:connector-curvature="0"
             id="path3999"
             d="M -1022.8571,5892.3622 -1022.8571,4767.3622 -9.7031,4767.3622 1003.4509,4767.3622 1002.7992,4780.2398 C 1001.2363,4811.1207 993.2599,4831.7454 977.0295,4846.8734 969.326,4854.0537 960.8957,4858.6464 942.9855,4865.4202 924.7044,4872.3342 916.6965,4876.338 907.4951,4883.1647 887.5189,4897.9855 869.4176,4924.2667 852.6032,4962.8622 849.4882,4970.0122 841.646,4989.1372 835.1761,5005.3622 816.2678,5052.7793 809.3727,5068.1286 797.3249,5089.6236 783.0309,5115.1264 768.2449,5135.1284 749.1734,5154.7617 729.6676,5174.842 717.1669,5185.208 673.6429,5217.3944 614.1698,5261.3751 584.3371,5289.7412 551.1532,5333.8622 449.8969,5468.4914 397.8952,5690.9703 415.702,5913.3622 427.5274,6061.0506 469.1494,6195.9972 532.9065,6293.3622 552.484,6323.2594 571.3615,6346.5822 595.6408,6370.8695 616.2579,6391.4933 634.7859,6406.8971 675.7644,6437.4825 715.5345,6467.166 729.7239,6478.8033 745.6526,6494.8007 773.08,6522.3465 794.0135,6553.4333 812.9566,6594.7488 816.7678,6603.0612 826.7398,6626.9248 835.1167,6647.7792 861.0615,6712.3692 870.407,6730.5547 889.1279,6752.8792 902.3766,6768.6784 915.7786,6777.5676 940.4163,6786.8978 959.0819,6793.9664 964.88,6796.8101 972.8654,6802.8129 995.0573,6819.4948 1005.8594,6853.014 1002.2075,6893.8622 1001.5682,6901.0122 999.5115,6917.4582 997.6371,6930.4088 992.9257,6962.9592 991.7629,6978.549 992.4757,6999.6122 L 993.0764,7017.3622 -14.8904,7017.3622 -1022.8571,7017.3622 -1022.8571,5892.3622 z"
             style="fill:#002381;fill-opacity:1" />
        <path
             inkscape:connector-curvature="0"
             id="path4001"
             d="M 344.052,5590.0924 C 343.11266,5590.7779 342.49474,5591.234 341.47811,5591.9745 314.12858,5611.8997 302.31892,5621.5935 287.8811,5635.9352 238.39373,5685.0929 209.22118,5752.9623 203.59948,5831.9967 202.92891,5841.4246 202.92073,5868.9669 203.5894,5878.4545 209.17454,5957.7059 237.9041,6024.6596 287.73976,6074.5907 301.99165,6088.8697 313.74305,6098.4684 343.57758,6120.2099 343.76702,6120.3479 343.86557,6120.428 344.052,6120.5639 L 344.052,6062.3473 C 322.29138,6013.3984 308.90697,5959.4764 303.91982,5900.6305 301.36791,5870.5194 301.56108,5835.1998 304.44469,5804.0438 309.59282,5748.4204 323.01453,5695.8359 344.052,5648.3462 L 344.052,5590.0924 z"
             style="fill:#000085;fill-opacity:1" />
        <path
             style="fill:#0000aa;fill-opacity:1"
             d="M 454.59745,5469.1833 C 453.29463,5470.1625 452.4376,5470.8139 451.02758,5471.8718 413.09494,5500.3337 396.71545,5514.1806 376.69081,5534.6667 308.05392,5604.8854 267.59283,5701.8325 259.79577,5814.728 258.86572,5828.1951 258.85438,5867.5374 259.7818,5881.0898 267.52814,5994.2955 307.37482,6089.9345 376.49477,6161.2578 396.26153,6181.6545 412.56023,6195.3655 453.93945,6226.4218 454.2022,6226.619 454.33888,6226.7334 454.59745,6226.9275 L 454.59745,6143.7688 C 424.4164,6073.8486 405.85279,5996.8244 398.93582,5912.767 395.39643,5869.7551 395.66436,5819.3034 399.6638,5774.7991 406.80403,5695.3446 425.41938,5620.2311 454.59745,5552.395 L 454.59745,5469.1833 z"
             id="path4003"
             inkscape:connector-curvature="0" />
        <path
             inkscape:connector-curvature="0"
             id="path4005"
             d="M 627.1429,5366.0924 C 625.02225,5367.3534 623.62722,5368.1924 621.33207,5369.555 559.58743,5406.2122 532.92583,5424.046 500.33082,5450.4308 388.60753,5540.8679 322.74723,5665.7296 310.05561,5811.1319 308.54173,5828.4766 308.52328,5879.1469 310.03286,5896.6017 322.64194,6042.4032 387.50214,6165.5802 500.01173,6257.44 532.18694,6283.7098 558.71706,6301.3685 626.07185,6341.3671 626.49953,6341.621 626.72201,6341.7685 627.1429,6342.0184 L 627.1429,6234.9154 C 578.01587,6144.8626 547.79907,6045.6603 536.54003,5937.3997 530.77878,5882.0032 531.21492,5817.0247 537.72498,5759.706 549.34745,5657.3737 579.64848,5560.6323 627.1429,5473.2638 L 627.1429,5366.0924 z"
             style="fill:#0000d4;fill-opacity:1" />
        <path
             inkscape:connector-curvature="0"
             id="path4007"
             d="M 1045.12,7010.6122 C 1041.6602,6999.5085 1031.6668,6959.882 1024.1251,6927.3622 1001.7099,6830.7079 987.8272,6788.0972 962.5484,6738.3622 946.6032,6706.9907 929.5173,6680.8182 905.4921,6650.962 889.6407,6631.2635 880.6036,6621.0222 847.1645,6584.8622 789.6155,6522.6305 766.9445,6495.1438 739.4535,6454.2719 643.3235,6311.3519 587.9167,6119.707 577.1433,5892.8622 575.8535,5865.7051 575.859,5786.8479 577.1525,5759.8622 587.9964,5533.6385 644.2748,5339.3781 739.7329,5198.672 767.5826,5157.6213 790.3677,5129.8953 843.1233,5072.8622 877.696,5035.4861 888.313,5023.5579 902.7582,5005.8622 956.1107,4940.5042 987.849,4874.1644 1011.7183,4778.1122 L 1014.3897,4767.3622 1044.8015,4767.3622 1075.2133,4767.3622 1074.0112,4769.6122 C 1073.35,4770.8497 1062.8091,4787.8859 1050.5868,4807.4705 976.2591,4926.5714 942.412,4988.6083 907.427,5069.8622 832.3079,5244.3293 785.8173,5453.2465 771.6829,5679.8622 766.1206,5769.0413 765.7516,5870.1741 770.6741,5956.3622 786.7403,6237.6694 847.9651,6479.6098 954.2297,6681.7134 978.8071,6728.4569 1000.3382,6765.2118 1047.4596,6840.8622 1096.1044,6918.9582 1113.5765,6949.0354 1134.8462,6991.2927 1141.6094,7004.7294 1147.1429,7016.0919 1147.1429,7016.5427 1147.1429,7016.9934 1124.661,7017.3622 1097.1831,7017.3622 L 1047.2233,7017.3622 1045.12,7010.6122 z"
             style="fill:#049cf8" />
        <path
             inkscape:connector-curvature="0"
             id="path4009"
             d="M 1366.1368,7014.6122 C 1366.1334,7013.0997 1365.4665,7000.1622 1364.6547,6985.8622 1353.0483,6781.4085 1345.4218,6526.9557 1340.932,6194.3622 1339.2842,6072.3017 1339.287,5581.4924 1340.9361,5458.8622 1344.7395,5176.0403 1348.8296,5019.8387 1358.3029,4795.6122 L 1359.4964,4767.3622 1582.6023,4767.3622 1805.7082,4767.3622 1809.4537,4808.6122 C 1836.1988,5103.1661 1850.5922,5374.0138 1855.2489,5670.3622 1856.529,5751.8264 1855.9059,5981.4009 1854.2176,6050.3622 1847.7373,6315.0473 1837.1915,6515.7714 1817.099,6756.8622 1810.436,6836.8115 1794.199,7008.0417 1792.6103,7015.1122 L 1792.1048,7017.3622 1579.1238,7017.3622 1366.1429,7017.3622 1366.1368,7014.6122 z"
             style="fill:#fb9601" />
        <path
             inkscape:connector-curvature="0"
             id="path4011"
             d="M 992.7971,7009.1122 C 991.1054,6987.3803 992.3641,6966.9562 997.6504,6930.3622 999.5176,6917.4372 1001.5682,6901.0122 1002.2075,6893.8622 1005.8594,6853.014 995.0573,6819.4948 972.8654,6802.8129 964.88,6796.8101 959.0819,6793.9664 940.4163,6786.8978 915.7786,6777.5676 902.3766,6768.6784 889.1279,6752.8792 870.407,6730.5547 861.0615,6712.3692 835.1167,6647.7792 826.7398,6626.9248 816.7678,6603.0612 812.9566,6594.7488 794.0135,6553.4333 773.08,6522.3465 745.6526,6494.8007 729.7239,6478.8033 715.5345,6467.166 675.7644,6437.4825 657.5106,6423.8583 635.6159,6406.8985 627.1093,6399.794 552.2492,6337.2725 498.3347,6253.1123 460.5925,6139.8622 415.47,6004.4665 401.3311,5845.3742 420.7334,5691.3622 438.6464,5549.1722 485.2064,5421.5443 551.1532,5333.8622 584.3371,5289.7412 614.1698,5261.3751 673.6429,5217.3944 717.1669,5185.208 729.6676,5174.842 749.1734,5154.7617 768.2449,5135.1284 783.0309,5115.1264 797.3249,5089.6236 809.3727,5068.1286 816.2678,5052.7793 835.1761,5005.3622 841.646,4989.1372 849.4882,4970.0122 852.6032,4962.8622 869.4176,4924.2667 887.5189,4897.9855 907.4951,4883.1647 916.6965,4876.338 924.7044,4872.3342 942.9855,4865.4202 960.8957,4858.6464 969.326,4854.0537 977.0295,4846.8734 993.2599,4831.7454 1001.2363,4811.1207 1002.7992,4780.2398 L 1003.4509,4767.3622 1008.7969,4767.3622 C 1011.7372,4767.3622 1014.1429,4767.6135 1014.1429,4767.9207 1014.1429,4769.4361 1007.3979,4794.8894 1002.64,4811.3287 979.6998,4890.5913 950.6167,4947.2345 902.7582,5005.8622 888.313,5023.5579 877.696,5035.4861 843.1233,5072.8622 790.3677,5129.8953 767.5826,5157.6213 739.7329,5198.672 644.2748,5339.3781 587.9964,5533.6385 577.1525,5759.8622 575.859,5786.8479 575.8535,5865.7051 577.1433,5892.8622 582.5546,6006.8027 598.7779,6109.4988 626.5101,6205.3622 662.5012,6329.7747 714.0495,6430.0698 786.8677,6517.3622 803.3124,6537.0757 812.9249,6547.8366 847.1645,6584.8622 880.6036,6621.0222 889.6407,6631.2635 905.4921,6650.962 929.5173,6680.8182 946.6032,6706.9907 962.5484,6738.3622 987.6544,6787.7571 1001.7912,6831.0158 1023.6593,6925.3622 1033.4255,6967.4966 1043.7711,7008.0501 1046.683,7015.6122 1047.3145,7017.2523 1045.6632,7017.3622 1020.3981,7017.3622 L 993.4393,7017.3622 992.7971,7009.1122 z"
             style="fill:#1931e3" />
        <path
             inkscape:connector-curvature="0"
             id="path4013"
             d="M 1792.6943,7014.6122 C 1794.5323,7004.5328 1810.6072,6834.7571 1817.099,6756.8622 1837.1915,6515.7714 1847.7373,6315.0473 1854.2176,6050.3622 1855.9064,5981.3827 1856.529,5751.8248 1855.2483,5670.3622 1850.6143,5375.6102 1835.557,5091.9506 1809.5986,4810.3786 1807.6979,4789.7627 1806.1429,4771.6502 1806.1429,4770.1286 L 1806.1429,4767.3622 1891.6429,4767.3622 1977.1429,4767.3622 1977.1429,5892.3622 1977.1429,7017.3622 1884.6679,7017.3622 1792.1929,7017.3622 1792.6943,7014.6122 z"
             style="fill:#e22d1a" />
    </g>
</svg>
